<svg width="24" height="24" fill="none" xmlns="http://www.w3.org/2000/svg">
<rect x="0.833332" y="0.942949" width="14.1718" height="19.8405" rx="2" stroke="black"/>
<path d="M8 1L8.09232 8.48345L8.7317 1.05478L8.27595 8.51103L9.45538 1.21852L8.45656 8.56587L10.1631 1.48944L8.63216 8.64738L10.8472 1.86455L8.80084 8.75466L11.5 2.33975L8.96074 8.88655L12.1145 2.90983L9.11012 9.04159L12.6839 3.56855L9.24734 9.21809L13.202 4.30869L9.37089 9.41411L13.6631 5.12215L9.47941 9.62751L14.0622 6L9.57174 9.85594L14.3948 6.93263L9.64684 10.0969L14.6574 7.90983L9.70389 10.3478L14.847 8.92088L9.74228 10.6058L14.9617 9.95472L9.76158 10.8681L15 11L9.76158 11.1319L14.9617 12.0453L9.74228 11.3942L14.847 13.0791L9.70389 11.6522L14.6574 14.0902L9.64684 11.9031L14.3948 15.0674L9.57174 12.1441L14.0622 16L9.47941 12.3725L13.6631 16.8779L9.37089 12.5859L13.202 17.6913L9.24734 12.7819L12.6839 18.4314L9.11012 12.9584L12.1145 19.0902L8.96074 13.1135L11.5 19.6603L8.80084 13.2453L10.8472 20.1355L8.63216 13.3526L10.1631 20.5106L8.45656 13.4341L9.45538 20.7815L8.27595 13.489L8.7317 20.9452L8.09232 13.5165L8 21L7.90768 13.5165L7.2683 20.9452L7.72405 13.489L6.54462 20.7815L7.54344 13.4341L5.83688 20.5106L7.36784 13.3526L5.15284 20.1355L7.19916 13.2453L4.5 19.6603L7.03926 13.1135L3.8855 19.0902L6.88988 12.9584L3.31609 18.4314L6.75266 12.7819L2.79799 17.6913L6.62911 12.5859L2.33688 16.8779L6.52059 12.3725L1.93782 16L6.42826 12.1441L1.60518 15.0674L6.35316 11.9031L1.3426 14.0902L6.29611 11.6522L1.15297 13.0791L6.25772 11.3942L1.03835 12.0453L6.23842 11.1319L1 11L6.23842 10.8681L1.03835 9.95472L6.25772 10.6058L1.15297 8.92088L6.29611 10.3478L1.3426 7.90983L6.35316 10.0969L1.60518 6.93263L6.42826 9.85594L1.93782 6L6.52059 9.62751L2.33688 5.12215L6.62911 9.41411L2.79799 4.30869L6.75266 9.21809L3.31609 3.56855L6.88988 9.04159L3.8855 2.90983L7.03926 8.88655L4.5 2.33975L7.19916 8.75466L5.15284 1.86455L7.36784 8.64738L5.83688 1.48944L7.54344 8.56587L6.54462 1.21852L7.72405 8.51103L7.2683 1.05478L7.90768 8.48345L8 1Z" fill="black"/>
</svg>
