<svg width="290" height="310" viewBox="0 0 290 310" fill="none" xmlns="http://www.w3.org/2000/svg">
<path d="M40 42C40 40.8954 40.8954 40 42 40H248C249.105 40 250 40.8954 250 42V268C250 269.105 249.105 270 248 270H42C40.8954 270 40 269.105 40 268V42Z" fill="white"/>
<path d="M42 40V41H248V40V39H42V40ZM250 42H249V268H250H251V42H250ZM248 270V269H42V270V271H248V270ZM40 268H41V42H40H39V268H40ZM42 270V269C41.4477 269 41 268.552 41 268H40H39C39 269.657 40.3431 271 42 271V270ZM250 268H249C249 268.552 248.552 269 248 269V270V271C249.657 271 251 269.657 251 268H250ZM248 40V41C248.552 41 249 41.4477 249 42H250H251C251 40.3431 249.657 39 248 39V40ZM42 40V39C40.3431 39 39 40.3431 39 42H40H41C41 41.4477 41.4477 41 42 41V40Z" fill="black" fill-opacity="0.1"/>
<rect x="114.302" y="124.873" width="50" height="70" rx="2" transform="rotate(-10 114.302 124.873)" fill="white" stroke="black" stroke-width="0.75"/>
<rect x="117.045" y="122.312" width="50" height="70" rx="2" transform="rotate(-5 117.045 122.312)" fill="white" stroke="black" stroke-width="0.75"/>
<rect x="120" y="120" width="50" height="70" rx="2" fill="white" stroke="black" stroke-width="0.75"/>
<g filter="url(#filter0_g_0_1)">
<path d="M145.5 133L148.789 147.56L161.41 139.59L153.44 152.211L168 155.5L153.44 158.789L161.41 171.41L148.789 163.44L145.5 178L142.211 163.44L129.59 171.41L137.56 158.789L123 155.5L137.56 152.211L129.59 139.59L142.211 147.56L145.5 133Z" fill="black"/>
</g>
<path d="M126.377 123.469H123.431C123.366 123.469 123.314 123.521 123.314 123.585V126.531C123.314 126.596 123.366 126.648 123.431 126.648C123.495 126.648 123.548 126.596 123.548 126.531V123.702H126.377C126.441 123.702 126.493 123.65 126.493 123.585C126.493 123.521 126.441 123.469 126.377 123.469Z" fill="black"/>
<path d="M131.372 122.7H124.99C124.925 122.7 124.873 122.752 124.873 122.817C124.873 122.881 124.925 122.933 124.99 122.933H131.372C131.437 122.933 131.489 122.881 131.489 122.817C131.489 122.752 131.437 122.7 131.372 122.7Z" fill="black"/>
<path d="M122.467 124.904V131.287C122.467 131.352 122.519 131.404 122.583 131.404C122.648 131.404 122.7 131.352 122.7 131.287V124.904C122.7 124.84 122.648 124.788 122.583 124.788C122.519 124.788 122.467 124.84 122.467 124.904Z" fill="black"/>
<path d="M123.175 127.673C123.175 127.861 123.328 128.013 123.515 128.013C123.703 128.013 123.856 127.861 123.856 127.673C123.856 127.485 123.703 127.332 123.515 127.332C123.328 127.332 123.175 127.485 123.175 127.673ZM123.622 127.673C123.622 127.732 123.574 127.78 123.515 127.78C123.456 127.78 123.408 127.732 123.408 127.673C123.408 127.614 123.456 127.566 123.515 127.566C123.574 127.566 123.622 127.614 123.622 127.673Z" fill="black"/>
<path d="M127.485 123.453C127.297 123.453 127.144 123.606 127.144 123.794C127.144 123.981 127.297 124.134 127.485 124.134C127.672 124.134 127.825 123.981 127.825 123.794C127.825 123.606 127.672 123.453 127.485 123.453ZM127.485 123.901C127.426 123.901 127.378 123.853 127.378 123.794C127.378 123.735 127.426 123.687 127.485 123.687C127.544 123.687 127.592 123.735 127.592 123.794C127.592 123.853 127.544 123.901 127.485 123.901Z" fill="black"/>
<path d="M122.467 132.84C122.467 133.028 122.619 133.181 122.807 133.181C122.995 133.181 123.147 133.028 123.147 132.84C123.147 132.653 122.995 132.5 122.807 132.5C122.619 132.5 122.467 132.653 122.467 132.84ZM122.914 132.84C122.914 132.899 122.866 132.948 122.807 132.948C122.748 132.948 122.7 132.899 122.7 132.84C122.7 132.781 122.748 132.733 122.807 132.733C122.866 132.733 122.914 132.781 122.914 132.84Z" fill="black"/>
<path d="M132.5 123.04C132.5 123.228 132.653 123.381 132.84 123.381C133.028 123.381 133.181 123.228 133.181 123.04C133.181 122.853 133.028 122.7 132.84 122.7C132.653 122.7 132.5 122.853 132.5 123.04ZM132.947 123.04C132.947 123.099 132.899 123.148 132.84 123.148C132.781 123.148 132.733 123.099 132.733 123.04C132.733 122.981 132.781 122.933 132.84 122.933C132.899 122.933 132.947 122.981 132.947 123.04Z" fill="black"/>
<path d="M122 136V122.3C122 122.134 122.134 122 122.3 122H135.767" stroke="black" stroke-width="0.2"/>
<path d="M163.39 123.469H166.336C166.4 123.469 166.452 123.521 166.452 123.585V126.531C166.452 126.596 166.4 126.648 166.336 126.648C166.271 126.648 166.219 126.596 166.219 126.531V123.702H163.39C163.326 123.702 163.273 123.65 163.273 123.585C163.273 123.521 163.326 123.469 163.39 123.469Z" fill="black"/>
<path d="M158.394 122.7H164.777C164.842 122.7 164.894 122.752 164.894 122.817C164.894 122.881 164.842 122.933 164.777 122.933H158.394C158.33 122.933 158.278 122.881 158.278 122.817C158.278 122.752 158.33 122.7 158.394 122.7Z" fill="black"/>
<path d="M167.3 124.904V131.287C167.3 131.352 167.248 131.404 167.183 131.404C167.119 131.404 167.067 131.352 167.067 131.287V124.904C167.067 124.84 167.119 124.788 167.183 124.788C167.248 124.788 167.3 124.84 167.3 124.904Z" fill="black"/>
<path d="M166.592 127.673C166.592 127.861 166.439 128.013 166.251 128.013C166.064 128.013 165.911 127.861 165.911 127.673C165.911 127.485 166.064 127.332 166.251 127.332C166.439 127.332 166.592 127.485 166.592 127.673ZM166.144 127.673C166.144 127.732 166.192 127.78 166.251 127.78C166.31 127.78 166.358 127.732 166.358 127.673C166.358 127.614 166.31 127.566 166.251 127.566C166.192 127.566 166.144 127.614 166.144 127.673Z" fill="black"/>
<path d="M162.282 123.453C162.47 123.453 162.622 123.606 162.622 123.794C162.622 123.981 162.47 124.134 162.282 124.134C162.094 124.134 161.942 123.981 161.942 123.794C161.942 123.606 162.094 123.453 162.282 123.453ZM162.282 123.901C162.341 123.901 162.389 123.853 162.389 123.794C162.389 123.735 162.341 123.687 162.282 123.687C162.223 123.687 162.175 123.735 162.175 123.794C162.175 123.853 162.223 123.901 162.282 123.901Z" fill="black"/>
<path d="M167.3 132.84C167.3 133.028 167.147 133.181 166.96 133.181C166.772 133.181 166.619 133.028 166.619 132.84C166.619 132.653 166.772 132.5 166.96 132.5C167.147 132.5 167.3 132.653 167.3 132.84ZM166.853 132.84C166.853 132.899 166.901 132.948 166.96 132.948C167.019 132.948 167.067 132.899 167.067 132.84C167.067 132.781 167.019 132.733 166.96 132.733C166.901 132.733 166.853 132.781 166.853 132.84Z" fill="black"/>
<path d="M157.267 123.04C157.267 123.228 157.114 123.381 156.926 123.381C156.739 123.381 156.586 123.228 156.586 123.04C156.586 122.853 156.739 122.7 156.926 122.7C157.114 122.7 157.267 122.853 157.267 123.04ZM156.819 123.04C156.819 123.099 156.867 123.148 156.926 123.148C156.985 123.148 157.033 123.099 157.033 123.04C157.033 122.981 156.985 122.933 156.926 122.933C156.867 122.933 156.819 122.981 156.819 123.04Z" fill="black"/>
<path d="M167.767 136V122.3C167.767 122.134 167.632 122 167.467 122H154" stroke="black" stroke-width="0.2"/>
<path d="M126.377 186.531H123.431C123.366 186.531 123.314 186.479 123.314 186.415V183.469C123.314 183.404 123.366 183.352 123.431 183.352C123.495 183.352 123.548 183.404 123.548 183.469V186.298H126.377C126.441 186.298 126.493 186.35 126.493 186.415C126.493 186.479 126.441 186.531 126.377 186.531Z" fill="black"/>
<path d="M131.372 187.3H124.99C124.925 187.3 124.873 187.248 124.873 187.183C124.873 187.119 124.925 187.067 124.99 187.067H131.372C131.437 187.067 131.489 187.119 131.489 187.183C131.489 187.248 131.437 187.3 131.372 187.3Z" fill="black"/>
<path d="M122.467 185.096V178.713C122.467 178.648 122.519 178.596 122.583 178.596C122.648 178.596 122.7 178.648 122.7 178.713V185.096C122.7 185.16 122.648 185.212 122.583 185.212C122.519 185.212 122.467 185.16 122.467 185.096Z" fill="black"/>
<path d="M123.175 182.327C123.175 182.139 123.328 181.987 123.515 181.987C123.703 181.987 123.856 182.139 123.856 182.327C123.856 182.515 123.703 182.668 123.515 182.668C123.328 182.668 123.175 182.515 123.175 182.327ZM123.622 182.327C123.622 182.268 123.574 182.22 123.515 182.22C123.456 182.22 123.408 182.268 123.408 182.327C123.408 182.386 123.456 182.434 123.515 182.434C123.574 182.434 123.622 182.386 123.622 182.327Z" fill="black"/>
<path d="M127.485 186.547C127.297 186.547 127.144 186.394 127.144 186.206C127.144 186.019 127.297 185.866 127.485 185.866C127.672 185.866 127.825 186.019 127.825 186.206C127.825 186.394 127.672 186.547 127.485 186.547ZM127.485 186.099C127.426 186.099 127.378 186.147 127.378 186.206C127.378 186.265 127.426 186.313 127.485 186.313C127.544 186.313 127.592 186.265 127.592 186.206C127.592 186.147 127.544 186.099 127.485 186.099Z" fill="black"/>
<path d="M122.467 177.16C122.467 176.972 122.619 176.819 122.807 176.819C122.995 176.819 123.147 176.972 123.147 177.16C123.147 177.347 122.995 177.5 122.807 177.5C122.619 177.5 122.467 177.347 122.467 177.16ZM122.914 177.16C122.914 177.101 122.866 177.052 122.807 177.052C122.748 177.052 122.7 177.101 122.7 177.16C122.7 177.219 122.748 177.267 122.807 177.267C122.866 177.267 122.914 177.219 122.914 177.16Z" fill="black"/>
<path d="M132.5 186.96C132.5 186.772 132.653 186.619 132.84 186.619C133.028 186.619 133.181 186.772 133.181 186.96C133.181 187.147 133.028 187.3 132.84 187.3C132.653 187.3 132.5 187.147 132.5 186.96ZM132.947 186.96C132.947 186.901 132.899 186.852 132.84 186.852C132.781 186.852 132.733 186.901 132.733 186.96C132.733 187.019 132.781 187.067 132.84 187.067C132.899 187.067 132.947 187.019 132.947 186.96Z" fill="black"/>
<path d="M122 174V187.7C122 187.866 122.134 188 122.3 188H135.767" stroke="black" stroke-width="0.2"/>
<path d="M163.39 186.531H166.336C166.4 186.531 166.452 186.479 166.452 186.415V183.469C166.452 183.404 166.4 183.352 166.336 183.352C166.271 183.352 166.219 183.404 166.219 183.469V186.298H163.39C163.326 186.298 163.273 186.35 163.273 186.415C163.273 186.479 163.326 186.531 163.39 186.531Z" fill="black"/>
<path d="M158.394 187.3H164.777C164.842 187.3 164.894 187.248 164.894 187.183C164.894 187.119 164.842 187.067 164.777 187.067H158.394C158.33 187.067 158.278 187.119 158.278 187.183C158.278 187.248 158.33 187.3 158.394 187.3Z" fill="black"/>
<path d="M167.3 185.096V178.713C167.3 178.648 167.248 178.596 167.183 178.596C167.119 178.596 167.067 178.648 167.067 178.713V185.096C167.067 185.16 167.119 185.212 167.183 185.212C167.248 185.212 167.3 185.16 167.3 185.096Z" fill="black"/>
<path d="M166.592 182.327C166.592 182.139 166.439 181.987 166.251 181.987C166.064 181.987 165.911 182.139 165.911 182.327C165.911 182.515 166.064 182.668 166.251 182.668C166.439 182.668 166.592 182.515 166.592 182.327ZM166.144 182.327C166.144 182.268 166.192 182.22 166.251 182.22C166.31 182.22 166.358 182.268 166.358 182.327C166.358 182.386 166.31 182.434 166.251 182.434C166.192 182.434 166.144 182.386 166.144 182.327Z" fill="black"/>
<path d="M162.282 186.547C162.47 186.547 162.622 186.394 162.622 186.206C162.622 186.019 162.47 185.866 162.282 185.866C162.094 185.866 161.942 186.019 161.942 186.206C161.942 186.394 162.094 186.547 162.282 186.547ZM162.282 186.099C162.341 186.099 162.389 186.147 162.389 186.206C162.389 186.265 162.341 186.313 162.282 186.313C162.223 186.313 162.175 186.265 162.175 186.206C162.175 186.147 162.223 186.099 162.282 186.099Z" fill="black"/>
<path d="M167.3 177.16C167.3 176.972 167.147 176.819 166.96 176.819C166.772 176.819 166.619 176.972 166.619 177.16C166.619 177.347 166.772 177.5 166.96 177.5C167.147 177.5 167.3 177.347 167.3 177.16ZM166.853 177.16C166.853 177.101 166.901 177.052 166.96 177.052C167.019 177.052 167.067 177.101 167.067 177.16C167.067 177.219 167.019 177.267 166.96 177.267C166.901 177.267 166.853 177.219 166.853 177.16Z" fill="black"/>
<path d="M157.267 186.96C157.267 186.772 157.114 186.619 156.926 186.619C156.739 186.619 156.586 186.772 156.586 186.96C156.586 187.147 156.739 187.3 156.926 187.3C157.114 187.3 157.267 187.147 157.267 186.96ZM156.819 186.96C156.819 186.901 156.867 186.852 156.926 186.852C156.985 186.852 157.033 186.901 157.033 186.96C157.033 187.019 156.985 187.067 156.926 187.067C156.867 187.067 156.819 187.019 156.819 186.96Z" fill="black"/>
<path d="M167.767 174V187.7C167.767 187.866 167.632 188 167.467 188H154" stroke="black" stroke-width="0.2"/>
<path d="M145 152.25C146.343 152.25 147.547 152.577 148.407 153.093C149.272 153.612 149.75 154.294 149.75 155C149.75 155.706 149.272 156.388 148.407 156.907C147.547 157.423 146.343 157.75 145 157.75C143.657 157.75 142.453 157.423 141.593 156.907C140.728 156.388 140.25 155.706 140.25 155C140.25 154.294 140.728 153.612 141.593 153.093C142.453 152.577 143.657 152.25 145 152.25Z" stroke="white" stroke-width="0.5"/>
<ellipse cx="145" cy="155" rx="1" ry="2.25" fill="white"/>
<rect x="40" y="4" width="59.375" height="30" rx="3" fill="white"/>
<rect x="40.5" y="4.5" width="58.375" height="29" rx="2.5" stroke="black" stroke-opacity="0.2"/>
<path d="M51.3438 16C51.2969 15.6042 51.1068 15.2969 50.7734 15.0781C50.4401 14.8594 50.0313 14.75 49.5469 14.75C49.1927 14.75 48.8828 14.8073 48.6172 14.9219C48.3542 15.0365 48.1484 15.194 48 15.3945C47.8542 15.5951 47.7813 15.8229 47.7813 16.0781C47.7813 16.2917 47.832 16.4753 47.9336 16.6289C48.0378 16.7799 48.1706 16.9062 48.332 17.0078C48.4935 17.1068 48.6628 17.1888 48.8398 17.2539C49.0169 17.3164 49.1797 17.3672 49.3281 17.4062L50.1406 17.625C50.349 17.6797 50.5807 17.7552 50.8359 17.8516C51.0938 17.9479 51.3398 18.0794 51.5742 18.2461C51.8112 18.4102 52.0065 18.6211 52.1602 18.8789C52.3138 19.1367 52.3906 19.4531 52.3906 19.8281C52.3906 20.2604 52.2773 20.651 52.0508 21C51.8268 21.349 51.4987 21.6263 51.0664 21.832C50.6367 22.0378 50.1146 22.1406 49.5 22.1406C48.9271 22.1406 48.431 22.0482 48.0117 21.8633C47.5951 21.6784 47.2669 21.4206 47.0273 21.0898C46.7904 20.7591 46.6563 20.375 46.625 19.9375H47.625C47.651 20.2396 47.7526 20.4896 47.9297 20.6875C48.1094 20.8828 48.3359 21.0286 48.6094 21.125C48.8854 21.2187 49.1823 21.2656 49.5 21.2656C49.8698 21.2656 50.2018 21.2057 50.4961 21.0859C50.7904 20.9635 51.0234 20.7943 51.1953 20.5781C51.3672 20.3594 51.4531 20.1042 51.4531 19.8125C51.4531 19.5469 51.3789 19.3307 51.2305 19.1641C51.082 18.9974 50.8867 18.862 50.6445 18.7578C50.4023 18.6536 50.1406 18.5625 49.8594 18.4844L48.875 18.2031C48.25 18.0234 47.7552 17.7669 47.3906 17.4336C47.026 17.1003 46.8438 16.6641 46.8438 16.125C46.8438 15.6771 46.9648 15.2865 47.207 14.9531C47.4518 14.6172 47.7799 14.3568 48.1914 14.1719C48.6055 13.9844 49.0677 13.8906 49.5781 13.8906C50.0938 13.8906 50.5521 13.9831 50.9531 14.168C51.3542 14.3503 51.6719 14.6003 51.9062 14.918C52.1432 15.2357 52.2682 15.5964 52.2813 16H51.3438ZM56.374 22.125C55.7959 22.125 55.2972 21.9974 54.8779 21.7422C54.4613 21.4844 54.1396 21.125 53.9131 20.6641C53.6891 20.2005 53.5771 19.6615 53.5771 19.0469C53.5771 18.4323 53.6891 17.8906 53.9131 17.4219C54.1396 16.9505 54.4548 16.5833 54.8584 16.3203C55.2646 16.0547 55.7386 15.9219 56.2803 15.9219C56.5928 15.9219 56.9014 15.974 57.2061 16.0781C57.5107 16.1823 57.7881 16.3516 58.0381 16.5859C58.2881 16.8177 58.4873 17.125 58.6357 17.5078C58.7842 17.8906 58.8584 18.362 58.8584 18.9219V19.3125H54.2334V18.5156H57.9209C57.9209 18.1771 57.8532 17.875 57.7178 17.6094C57.585 17.3437 57.3949 17.1341 57.1475 16.9805C56.9027 16.8268 56.6136 16.75 56.2803 16.75C55.9131 16.75 55.5954 16.8411 55.3271 17.0234C55.0615 17.2031 54.8571 17.4375 54.7139 17.7266C54.5706 18.0156 54.499 18.3255 54.499 18.6562V19.1875C54.499 19.6406 54.5771 20.0247 54.7334 20.3398C54.8923 20.6523 55.1123 20.8906 55.3936 21.0547C55.6748 21.2161 56.0016 21.2969 56.374 21.2969C56.6162 21.2969 56.835 21.263 57.0303 21.1953C57.2282 21.125 57.3988 21.0208 57.542 20.8828C57.6852 20.7422 57.7959 20.5677 57.874 20.3594L58.7646 20.6094C58.6709 20.9115 58.5133 21.1771 58.292 21.4062C58.0706 21.6328 57.7972 21.8099 57.4717 21.9375C57.1462 22.0625 56.7803 22.125 56.374 22.125ZM62.6982 22.125C62.1357 22.125 61.6514 21.9922 61.2451 21.7266C60.8389 21.4609 60.5264 21.0951 60.3076 20.6289C60.0889 20.1628 59.9795 19.6302 59.9795 19.0312C59.9795 18.4219 60.0915 17.8841 60.3154 17.418C60.542 16.9492 60.8571 16.5833 61.2607 16.3203C61.667 16.0547 62.141 15.9219 62.6826 15.9219C63.1045 15.9219 63.4847 16 63.8232 16.1562C64.1618 16.3125 64.4391 16.5312 64.6553 16.8125C64.8714 17.0937 65.0055 17.4219 65.0576 17.7969H64.1357C64.0654 17.5234 63.9092 17.2812 63.667 17.0703C63.4274 16.8568 63.1045 16.75 62.6982 16.75C62.3389 16.75 62.0238 16.8437 61.7529 17.0312C61.4847 17.2161 61.2751 17.4779 61.124 17.8164C60.9756 18.1523 60.9014 18.5469 60.9014 19C60.9014 19.4635 60.9743 19.8672 61.1201 20.2109C61.2686 20.5547 61.4769 20.8216 61.7451 21.0117C62.016 21.2018 62.3337 21.2969 62.6982 21.2969C62.9378 21.2969 63.1553 21.2552 63.3506 21.1719C63.5459 21.0885 63.7113 20.9688 63.8467 20.8125C63.9821 20.6562 64.0785 20.4687 64.1357 20.25H65.0576C65.0055 20.6042 64.8766 20.9232 64.6709 21.207C64.4678 21.4883 64.1982 21.7122 63.8623 21.8789C63.529 22.043 63.141 22.125 62.6982 22.125ZM69.0146 16V16.7812H65.9053V16H69.0146ZM66.8115 14.5625H67.7334V20.2812C67.7334 20.5417 67.7712 20.737 67.8467 20.8672C67.9248 20.9948 68.0238 21.0807 68.1436 21.125C68.266 21.1667 68.3949 21.1875 68.5303 21.1875C68.6318 21.1875 68.7152 21.1823 68.7803 21.1719C68.8454 21.1589 68.8975 21.1484 68.9365 21.1406L69.124 21.9687C69.0615 21.9922 68.9743 22.0156 68.8623 22.0391C68.7503 22.0651 68.6084 22.0781 68.4365 22.0781C68.1761 22.0781 67.9209 22.0221 67.6709 21.9102C67.4235 21.7982 67.2178 21.6276 67.0537 21.3984C66.8923 21.1693 66.8115 20.8802 66.8115 20.5312V14.5625ZM70.4014 22V16H71.3232V22H70.4014ZM70.8701 15C70.6904 15 70.5355 14.9388 70.4053 14.8164C70.2777 14.694 70.2139 14.5469 70.2139 14.375C70.2139 14.2031 70.2777 14.056 70.4053 13.9336C70.5355 13.8112 70.6904 13.75 70.8701 13.75C71.0498 13.75 71.2035 13.8112 71.3311 13.9336C71.4613 14.056 71.5264 14.2031 71.5264 14.375C71.5264 14.5469 71.4613 14.694 71.3311 14.8164C71.2035 14.9388 71.0498 15 70.8701 15ZM75.4492 22.125C74.9076 22.125 74.4323 21.9961 74.0234 21.7383C73.6172 21.4805 73.2995 21.1198 73.0703 20.6562C72.8438 20.1927 72.7305 19.651 72.7305 19.0312C72.7305 18.4062 72.8438 17.8607 73.0703 17.3945C73.2995 16.9284 73.6172 16.5664 74.0234 16.3086C74.4323 16.0508 74.9076 15.9219 75.4492 15.9219C75.9909 15.9219 76.4648 16.0508 76.8711 16.3086C77.2799 16.5664 77.5977 16.9284 77.8242 17.3945C78.0534 17.8607 78.168 18.4062 78.168 19.0312C78.168 19.651 78.0534 20.1927 77.8242 20.6562C77.5977 21.1198 77.2799 21.4805 76.8711 21.7383C76.4648 21.9961 75.9909 22.125 75.4492 22.125ZM75.4492 21.2969C75.8607 21.2969 76.1992 21.1914 76.4648 20.9805C76.7305 20.7695 76.9271 20.4922 77.0547 20.1484C77.1823 19.8047 77.2461 19.4323 77.2461 19.0312C77.2461 18.6302 77.1823 18.2565 77.0547 17.9102C76.9271 17.5638 76.7305 17.2839 76.4648 17.0703C76.1992 16.8568 75.8607 16.75 75.4492 16.75C75.0378 16.75 74.6992 16.8568 74.4336 17.0703C74.168 17.2839 73.9714 17.5638 73.8438 17.9102C73.7161 18.2565 73.6523 18.6302 73.6523 19.0312C73.6523 19.4323 73.7161 19.8047 73.8438 20.1484C73.9714 20.4922 74.168 20.7695 74.4336 20.9805C74.6992 21.1914 75.0378 21.2969 75.4492 21.2969ZM80.4971 18.3906V22H79.5752V16H80.4658V16.9375H80.5439C80.6846 16.6328 80.8981 16.388 81.1846 16.2031C81.471 16.0156 81.8408 15.9219 82.2939 15.9219C82.7002 15.9219 83.0557 16.0052 83.3604 16.1719C83.665 16.3359 83.902 16.5859 84.0713 16.9219C84.2406 17.2552 84.3252 17.6771 84.3252 18.1875V22H83.4033V18.25C83.4033 17.7786 83.2809 17.4115 83.0361 17.1484C82.7913 16.8828 82.4554 16.75 82.0283 16.75C81.734 16.75 81.471 16.8138 81.2393 16.9414C81.0101 17.069 80.8291 17.2552 80.6963 17.5C80.5635 17.7448 80.4971 18.0417 80.4971 18.3906ZM91.9004 14V22H90.9316V15.0156H90.8848L88.9316 16.3125V15.3281L90.9316 14H91.9004Z" fill="black"/>
<defs>
<filter id="filter0_g_0_1" x="119" y="129" width="53" height="53" filterUnits="userSpaceOnUse" color-interpolation-filters="sRGB">
<feFlood flood-opacity="0" result="BackgroundImageFix"/>
<feBlend mode="normal" in="SourceGraphic" in2="BackgroundImageFix" result="shape"/>
<feTurbulence type="fractalNoise" baseFrequency="0.25 0.25" numOctaves="3" seed="5867" />
<feDisplacementMap in="shape" scale="8" xChannelSelector="R" yChannelSelector="G" result="displacedImage" width="100%" height="100%" />
<feMerge result="effect1_texture_0_1">
<feMergeNode in="displacedImage"/>
</feMerge>
</filter>
</defs>
</svg>
